<svg version="1.1" id="Layer_1" xmlns="http://www.w3.org/2000/svg" xmlns:xlink="http://www.w3.org/1999/xlink" x="0px" y="0px"
	 width="100%" viewBox="0 0 756 756" enable-background="new 0 0 756 756" xml:space="preserve">
<path fill="#FFFFFF" opacity="1.000000" stroke="none" 
	d="
M405.000000,1.000000 
	C522.260925,1.000000 639.521851,1.000000 757.000000,1.000000 
	C757.000000,118.021927 757.000000,235.043976 756.621460,352.328491 
	C755.166626,342.470764 754.222534,332.334412 752.986267,322.233765 
	C750.483093,301.783875 745.340393,281.941528 739.128845,262.328857 
	C731.065613,236.869659 720.140259,212.702713 706.875916,189.569489 
	C692.307434,164.161880 675.008545,140.657364 654.752747,119.600044 
	C641.964905,106.306168 627.775513,94.297882 613.693665,82.326019 
	C593.043762,64.770309 569.885864,50.928104 545.632935,38.989616 
	C524.401001,28.538218 502.370850,20.071213 479.456024,13.971014 
	C459.856506,8.753382 440.059814,4.721079 419.823364,2.963197 
	C414.862823,2.532292 409.940094,1.666080 405.000000,1.000000 
z"/>
<path fill="#FFFFFF" opacity="1.000000" stroke="none" 
	d="
M757.000000,405.000000 
	C757.000000,522.260925 757.000000,639.521851 757.000000,757.000000 
	C639.978088,757.000000 522.955994,757.000000 405.671509,756.621460 
	C415.529114,755.166626 425.665375,754.222351 435.765869,752.986145 
	C456.215851,750.483276 476.058258,745.340515 495.670898,739.128906 
	C521.129944,731.065552 545.296936,720.140442 568.430054,706.876160 
	C593.837708,692.307617 617.342529,675.008972 638.399719,654.752869 
	C651.693542,641.964905 663.701904,627.775696 675.673828,613.693848 
	C693.229675,593.043945 707.071838,569.885925 719.010376,545.632874 
	C729.461731,524.400940 737.928833,502.370850 744.028992,479.456024 
	C749.246521,459.856476 753.279114,440.059845 755.036560,419.823303 
	C755.467346,414.862793 756.333862,409.940094 757.000000,405.000000 
z"/>
<path fill="#FFFFFF" opacity="1.000000" stroke="none" 
	d="
M1.000000,353.000000 
	C1.000000,235.739059 1.000000,118.478127 1.000000,1.000000 
	C118.021927,1.000000 235.043976,1.000000 352.328491,1.378492 
	C342.470886,2.833342 332.336517,3.791149 322.233826,5.011382 
	C302.756287,7.363938 283.809998,12.131135 265.105133,17.932583 
	C238.668213,26.132187 213.549316,37.340122 189.566360,51.119164 
	C164.171310,65.709503 140.657227,82.991623 119.599968,103.247375 
	C106.306084,116.035255 94.297821,130.224564 82.325935,144.306442 
	C64.770210,164.956268 50.928036,188.114182 38.989613,212.367142 
	C28.538275,233.599075 20.071177,255.629196 13.971008,278.544037 
	C8.753414,298.143555 4.721096,317.940216 2.963203,338.176636 
	C2.532291,343.137177 1.666081,348.059906 1.000000,353.000000 
z"/>
<path fill="#FFFFFF" opacity="1.000000" stroke="none" 
	d="
M353.000000,757.000000 
	C235.739090,757.000000 118.478172,757.000000 1.000000,757.000000 
	C1.000000,639.978088 1.000000,522.955994 1.378489,405.671509 
	C2.833338,415.529053 3.791158,425.663391 5.011370,435.766022 
	C7.363904,455.243561 12.131210,474.189819 17.932558,492.894714 
	C26.132067,519.331726 37.340111,544.450562 51.119137,568.433533 
	C65.709412,593.828613 82.991585,617.342651 103.247292,638.399902 
	C116.035187,651.693787 130.224411,663.702087 144.306320,675.673950 
	C164.956253,693.229614 188.114090,707.072144 212.367188,719.010376 
	C233.599197,729.461548 255.629227,737.929016 278.544128,744.029053 
	C298.143646,749.246521 317.940216,753.279114 338.176697,755.036560 
	C343.137238,755.467346 348.059906,756.333862 353.000000,757.000000 
z"/>
<path fill="#4360D8" opacity="1.000000" stroke="none" 
	d="
M353.468658,757.000000 
	C348.059906,756.333862 343.137238,755.467346 338.176697,755.036560 
	C317.940216,753.279114 298.143646,749.246521 278.544128,744.029053 
	C255.629227,737.929016 233.599197,729.461548 212.367188,719.010376 
	C188.114090,707.072144 164.956253,693.229614 144.306320,675.673950 
	C130.224411,663.702087 116.035187,651.693787 103.247292,638.399902 
	C82.991585,617.342651 65.709412,593.828613 51.119137,568.433533 
	C37.340111,544.450562 26.132067,519.331726 17.932558,492.894714 
	C12.131210,474.189819 7.363904,455.243561 5.011370,435.766022 
	C3.791158,425.663391 2.833338,415.529053 1.378489,405.204529 
	C1.000000,387.979095 1.000000,370.958221 1.000000,353.468658 
	C1.666081,348.059906 2.532291,343.137177 2.963203,338.176636 
	C4.721096,317.940216 8.753414,298.143555 13.971008,278.544037 
	C20.071177,255.629196 28.538275,233.599075 38.989613,212.367142 
	C50.928036,188.114182 64.770210,164.956268 82.325935,144.306442 
	C94.297821,130.224564 106.306084,116.035255 119.599968,103.247375 
	C140.657227,82.991623 164.171310,65.709503 189.566360,51.119164 
	C213.549316,37.340122 238.668213,26.132187 265.105133,17.932583 
	C283.809998,12.131135 302.756287,7.363938 322.233826,5.011382 
	C332.336517,3.791149 342.470886,2.833342 352.795471,1.378492 
	C370.020905,1.000000 387.041779,1.000000 404.531342,1.000000 
	C409.940094,1.666080 414.862823,2.532292 419.823364,2.963197 
	C440.059814,4.721079 459.856506,8.753382 479.456024,13.971014 
	C502.370850,20.071213 524.401001,28.538218 545.632935,38.989616 
	C569.885864,50.928104 593.043762,64.770309 613.693665,82.326019 
	C627.775513,94.297882 641.964905,106.306168 654.752747,119.600044 
	C675.008545,140.657364 692.307434,164.161880 706.875916,189.569489 
	C720.140259,212.702713 731.065613,236.869659 739.128845,262.328857 
	C745.340393,281.941528 750.483093,301.783875 752.986267,322.233765 
	C754.222534,332.334412 755.166626,342.470764 756.621460,352.795471 
	C757.000000,370.020905 757.000000,387.041779 757.000000,404.531342 
	C756.333862,409.940094 755.467346,414.862793 755.036560,419.823303 
	C753.279114,440.059845 749.246521,459.856476 744.028992,479.456024 
	C737.928833,502.370850 729.461731,524.400940 719.010376,545.632874 
	C707.071838,569.885925 693.229675,593.043945 675.673828,613.693848 
	C663.701904,627.775696 651.693542,641.964905 638.399719,654.752869 
	C617.342529,675.008972 593.837708,692.307617 568.430054,706.876160 
	C545.296936,720.140442 521.129944,731.065552 495.670898,739.128906 
	C476.058258,745.340515 456.215851,750.483276 435.765869,752.986145 
	C425.665375,754.222351 415.529114,755.166626 405.204529,756.621460 
	C387.979095,757.000000 370.958221,757.000000 353.468658,757.000000 
M505.016357,29.516808 
	C488.606049,24.805750 472.386383,19.206032 455.731934,15.632857 
	C438.981842,12.039168 421.861053,9.781837 404.785461,8.226272 
	C392.187561,7.078622 379.385956,7.611144 366.703156,8.109291 
	C354.217743,8.599685 341.742859,9.749732 329.307526,11.037372 
	C306.672180,13.381199 284.704956,18.910139 263.126099,25.963074 
	C238.863571,33.893150 215.679840,44.259060 193.560776,57.059395 
	C166.880203,72.499481 142.550598,91.054466 120.314606,112.305168 
	C104.686531,127.240746 90.878777,143.820602 78.121048,161.299698 
	C60.694828,185.175003 46.338181,210.756836 35.104935,238.052994 
	C26.603159,258.711823 19.662571,279.946838 15.655448,301.948547 
	C12.552122,318.987885 9.826871,336.157379 8.229233,353.389130 
	C7.061568,365.983307 7.611026,378.787994 8.109638,391.470764 
	C8.600493,403.956207 9.727523,416.434204 11.045248,428.865692 
	C13.425886,451.324707 18.870085,473.139954 25.881842,494.565308 
	C33.822109,518.827820 44.197281,541.980774 56.941841,564.147949 
	C71.894669,590.156067 89.617188,614.132629 110.440147,635.556885 
	C123.731331,649.231934 138.419678,661.682434 153.329697,673.622986 
	C185.498688,699.385437 221.515076,718.497986 260.709320,731.062195 
	C278.945221,736.907959 297.850555,740.759338 316.578339,744.952271 
	C338.366852,749.830505 360.641449,750.258728 382.847809,750.940857 
	C385.935852,751.035767 389.043274,750.271667 392.150604,750.010925 
	C404.281006,748.993042 416.437714,748.236511 428.542694,746.979309 
	C451.178497,744.628479 473.142395,739.110046 494.727203,732.063843 
	C518.995911,724.141418 542.171082,713.782776 564.303162,700.993652 
	C591.436157,685.314819 616.463074,666.763489 638.516663,644.621460 
	C652.307800,630.774963 664.897644,615.615417 677.022705,600.252808 
	C696.257996,575.881531 711.008484,548.736145 722.869141,520.092407 
	C731.477356,499.303223 738.349670,477.865509 742.488770,455.739014 
	C745.643372,438.875183 748.220947,421.838135 749.774231,404.761627 
	C750.920105,392.163452 750.388733,379.362091 749.890564,366.679321 
	C749.400085,354.193665 748.248108,341.718781 746.962891,329.282928 
	C744.640320,306.809814 739.084167,285.020752 732.206055,263.557556 
	C723.299194,235.763687 711.428345,209.185562 695.630432,184.734100 
	C683.940735,166.641083 670.569580,149.549103 656.962158,132.812271 
	C648.761658,122.725868 639.087952,113.706970 629.327576,105.052788 
	C617.806763,94.837692 605.922119,84.907211 593.373779,76.012070 
	C580.885864,67.159676 567.792847,58.946648 554.211609,51.906891 
	C538.473572,43.749146 521.914062,37.176064 505.016357,29.516808 
z"/>
<path fill="#FFFFFF" opacity="1.000000" stroke="none" 
	d="
M505.363770,29.715939 
	C521.914062,37.176064 538.473572,43.749146 554.211609,51.906891 
	C567.792847,58.946648 580.885864,67.159676 593.373779,76.012070 
	C605.922119,84.907211 617.806763,94.837692 629.327576,105.052788 
	C639.087952,113.706970 648.761658,122.725868 656.962158,132.812271 
	C670.569580,149.549103 683.940735,166.641083 695.630432,184.734100 
	C711.428345,209.185562 723.299194,235.763687 732.206055,263.557556 
	C739.084167,285.020752 744.640320,306.809814 746.962891,329.282928 
	C748.248108,341.718781 749.400085,354.193665 749.890564,366.679321 
	C750.388733,379.362091 750.920105,392.163452 749.774231,404.761627 
	C748.220947,421.838135 745.643372,438.875183 742.488770,455.739014 
	C738.349670,477.865509 731.477356,499.303223 722.869141,520.092407 
	C711.008484,548.736145 696.257996,575.881531 677.022705,600.252808 
	C664.897644,615.615417 652.307800,630.774963 638.516663,644.621460 
	C616.463074,666.763489 591.436157,685.314819 564.303162,700.993652 
	C542.171082,713.782776 518.995911,724.141418 494.727203,732.063843 
	C473.142395,739.110046 451.178497,744.628479 428.542694,746.979309 
	C416.437714,748.236511 404.281006,748.993042 392.150604,750.010925 
	C389.043274,750.271667 385.935852,751.035767 382.847809,750.940857 
	C360.641449,750.258728 338.366852,749.830505 316.578339,744.952271 
	C297.850555,740.759338 278.945221,736.907959 260.709320,731.062195 
	C221.515076,718.497986 185.498688,699.385437 153.329697,673.622986 
	C138.419678,661.682434 123.731331,649.231934 110.440147,635.556885 
	C89.617188,614.132629 71.894669,590.156067 56.941841,564.147949 
	C44.197281,541.980774 33.822109,518.827820 25.881842,494.565308 
	C18.870085,473.139954 13.425886,451.324707 11.045248,428.865692 
	C9.727523,416.434204 8.600493,403.956207 8.109638,391.470764 
	C7.611026,378.787994 7.061568,365.983307 8.229233,353.389130 
	C9.826871,336.157379 12.552122,318.987885 15.655448,301.948547 
	C19.662571,279.946838 26.603159,258.711823 35.104935,238.052994 
	C46.338181,210.756836 60.694828,185.175003 78.121048,161.299698 
	C90.878777,143.820602 104.686531,127.240746 120.314606,112.305168 
	C142.550598,91.054466 166.880203,72.499481 193.560776,57.059395 
	C215.679840,44.259060 238.863571,33.893150 263.126099,25.963074 
	C284.704956,18.910139 306.672180,13.381199 329.307526,11.037372 
	C341.742859,9.749732 354.217743,8.599685 366.703156,8.109291 
	C379.385956,7.611144 392.187561,7.078622 404.785461,8.226272 
	C421.861053,9.781837 438.981842,12.039168 455.731934,15.632857 
	C472.386383,19.206032 488.606049,24.805750 505.363770,29.715939 
M401.578064,464.017944 
	C404.338043,464.492432 407.089081,465.028534 409.859528,465.430817 
	C422.365906,467.246857 434.901978,466.402344 446.659668,462.318939 
	C460.747009,457.426514 473.052979,449.193085 483.171265,437.878967 
	C495.625458,423.952850 501.517609,407.520111 503.031006,389.172211 
	C503.940338,378.147675 500.923065,367.658295 498.389893,357.244843 
	C495.223267,344.227386 491.141937,331.381409 486.636627,318.753571 
	C481.082458,303.186127 474.819458,287.865051 468.606842,272.541260 
	C464.181580,261.626160 459.415161,250.846252 454.639771,240.077530 
	C452.337036,234.884674 449.357452,229.980560 447.224274,224.726471 
	C443.594696,215.786728 440.482758,206.638382 436.984650,197.643295 
	C433.251404,188.043457 429.311310,178.524155 425.486237,168.959808 
	C424.349823,166.118301 423.296844,163.243439 421.639648,158.900620 
	C419.585602,161.953064 417.922363,163.710403 417.081573,165.798874 
	C413.601501,174.443222 410.468597,183.226959 407.015106,191.882477 
	C404.446686,198.319794 401.488464,204.600830 398.876526,211.021729 
	C396.617310,216.575546 394.783112,222.305862 392.431946,227.817810 
	C389.430817,234.853500 385.994751,241.702667 382.936981,248.715439 
	C379.338562,256.968109 375.906036,265.294067 372.474854,273.618439 
	C369.980408,279.670166 367.500885,285.731903 365.202698,291.859711 
	C362.302765,299.591980 359.570068,307.387482 356.809753,315.171509 
	C354.224915,322.460693 351.609009,329.741089 349.185730,337.084381 
	C348.075989,340.447296 347.348999,343.940796 346.529053,347.394257 
	C344.329712,356.657257 341.029633,365.844330 340.321960,375.224152 
	C339.611237,384.644623 339.359863,394.212952 341.609344,403.893982 
	C343.625610,412.571350 346.726440,420.450439 351.326050,427.761047 
	C362.975342,446.276337 379.815002,457.924835 401.578064,464.017944 
M174.001236,382.450378 
	C173.270187,385.773834 172.829346,389.194794 171.751587,392.401733 
	C168.937790,400.774414 167.196793,409.383118 167.501556,418.143402 
	C168.073822,434.593903 165.300476,451.197052 169.922836,467.491730 
	C171.811691,474.150208 172.679977,481.093323 174.433487,487.796844 
	C175.576630,492.166962 177.252136,496.439240 179.092789,500.575714 
	C181.795578,506.649689 184.853317,512.566040 187.770706,518.544128 
	C190.407852,523.948059 193.059601,529.344849 196.131241,535.615051 
	C197.750244,534.702087 199.816849,534.134094 200.939606,532.782166 
	C203.459564,529.747864 205.246292,526.099548 207.797104,523.096802 
	C221.118027,507.415558 235.090271,492.349121 251.627213,479.952545 
	C259.338043,474.172302 267.041443,468.241302 275.368988,463.459747 
	C286.018768,457.344879 297.380035,452.483154 308.271118,446.769501 
	C315.261230,443.102386 321.906342,438.879333 329.994843,437.705292 
	C331.102325,437.544556 333.011627,433.446228 332.422394,432.510437 
	C326.031342,422.360535 324.968231,410.853821 324.215546,399.499054 
	C323.733521,392.227509 326.351440,384.728424 325.715576,377.495239 
	C325.055817,369.990570 328.660522,363.724762 329.474060,356.713440 
	C330.149933,350.888245 333.081909,345.328339 334.985687,339.641296 
	C337.680481,331.591339 340.237946,323.493408 343.061584,315.489166 
	C345.552399,308.428436 349.147705,301.648163 350.737305,294.410645 
	C352.207153,287.718262 355.802002,282.240936 358.227936,276.136627 
	C360.253113,271.040771 361.585205,265.669464 363.277130,260.250702 
	C358.129517,261.656311 353.863892,262.929688 349.542633,263.972626 
	C344.528503,265.182800 339.408173,265.980896 334.438446,267.339996 
	C328.304596,269.017395 322.336761,271.309418 316.190674,272.932404 
	C308.748322,274.897614 301.055786,275.994598 293.722534,278.274567 
	C283.511780,281.449249 273.678009,285.869263 263.419373,288.848999 
	C250.852798,292.499084 239.637115,298.854065 228.985291,305.900116 
	C219.139801,312.412842 210.266220,320.271912 202.210571,329.332520 
	C196.531921,335.719574 191.839981,342.541382 187.949203,349.734467 
	C182.452332,359.896790 178.580582,370.938171 174.001236,382.450378 
M258.000641,496.488708 
	C248.329803,505.715973 238.395874,514.687500 229.086670,524.266174 
	C223.482300,530.032715 218.943558,536.822632 213.750977,543.005737 
	C209.948227,547.533875 208.735596,551.927124 211.376099,554.676147 
	C217.629654,561.186707 224.041031,567.547607 230.485397,573.870300 
	C231.164261,574.536316 232.761917,575.105713 233.465912,574.762207 
	C236.678406,573.194458 239.661011,571.162598 242.841461,569.520813 
	C252.307190,564.634705 261.527405,559.082153 271.408173,555.243286 
	C281.758331,551.221985 292.680206,548.545410 303.504791,545.907166 
	C314.564514,543.211609 325.735443,540.750122 336.995483,539.164917 
	C347.049011,537.749573 357.288971,537.644226 367.449493,537.006287 
	C383.080658,536.024719 398.719269,538.222656 414.446350,535.340698 
	C424.074402,533.576355 433.821106,532.764526 443.440430,530.231750 
	C457.380127,526.561218 470.413666,521.110474 482.665985,513.776123 
	C497.057800,505.161072 509.194061,493.783295 520.188538,481.209900 
	C524.355408,476.444702 528.529419,471.559753 531.825012,466.192139 
	C535.551331,460.123047 538.538330,453.556915 541.400085,447.011566 
	C544.713379,439.433289 548.436096,432.035980 549.370911,423.511322 
	C549.987488,417.888123 552.098755,412.423462 553.602966,406.904755 
	C554.681274,402.948608 556.188965,399.080475 556.926392,395.066772 
	C558.228943,387.976929 558.927429,380.777405 560.175171,373.675903 
	C561.977539,363.417389 565.095398,353.272888 565.758301,342.958038 
	C566.823975,326.375031 566.394531,309.692566 566.402588,293.052032 
	C566.403137,291.869537 564.741028,289.671326 563.978638,289.725555 
	C562.609436,289.822998 560.704041,290.975403 560.125488,292.205658 
	C556.241821,300.463287 553.064270,309.072693 548.875793,317.163239 
	C539.957642,334.389862 529.883057,350.893341 516.554565,365.213928 
	C515.433411,366.418518 515.405579,369.076935 515.597534,370.986755 
	C516.213501,377.114929 517.786743,383.204163 517.832825,389.317139 
	C517.884216,396.123108 517.069763,403.009613 515.891113,409.731079 
	C514.596497,417.113617 513.398315,424.759216 510.436005,431.537659 
	C507.105072,439.159607 502.125916,446.131195 497.356720,453.035400 
	C492.358765,460.270752 486.038116,466.343964 478.563446,471.095612 
	C472.926422,474.679138 467.493134,478.712524 461.506592,481.579865 
	C455.706787,484.357788 449.447052,486.983978 443.155792,487.744110 
	C432.868500,488.987091 422.380402,488.460388 411.997894,489.049042 
	C398.281403,489.826752 386.230835,484.482727 374.527313,478.646576 
	C363.643127,473.218994 354.042725,465.515289 346.666565,455.829407 
	C343.132782,451.189056 339.254669,451.905884 335.799774,453.268555 
	C324.233276,457.830658 312.851532,462.907562 301.612732,468.237915 
	C294.035980,471.831329 286.545074,475.761017 279.517578,480.314728 
	C272.210022,485.049927 265.506104,490.716675 258.000641,496.488708 
M465.010529,201.484314 
	C462.821655,204.252884 460.571289,206.976181 458.479462,209.816238 
	C457.808258,210.727524 456.908722,212.195847 457.212555,212.987503 
	C460.116882,220.554459 463.201416,228.054306 466.344604,235.526978 
	C469.848175,243.856262 473.583282,252.089554 477.001373,260.453003 
	C480.251099,268.404480 483.210266,276.474518 486.318298,284.484222 
	C489.954529,293.855286 493.851654,303.133392 497.198090,312.606354 
	C500.789368,322.772461 503.721710,333.170929 507.287384,343.346832 
	C508.134857,345.765411 510.610046,347.783661 512.866211,344.362427 
	C519.658997,334.061859 526.483582,323.767975 532.816101,313.184540 
	C535.786987,308.219391 537.690186,302.610199 540.018066,297.267059 
	C542.697937,291.116150 545.836914,285.099762 547.817627,278.726929 
	C550.110901,271.348572 551.352417,263.643982 553.065369,256.084381 
	C555.032104,247.404404 557.635132,238.810120 558.797241,230.024582 
	C559.750183,222.820740 559.265625,215.378601 558.922668,208.065323 
	C558.593933,201.055420 558.452026,193.865097 556.735840,187.134537 
	C554.496155,178.350449 551.826782,169.370117 547.497437,161.487473 
	C538.085693,144.350876 532.488525,125.351021 521.191101,109.146782 
	C516.595764,102.555511 510.321289,101.227379 506.257782,107.895103 
	C503.195557,112.919899 501.696014,119.003777 500.094574,124.780815 
	C498.614410,130.120224 497.992981,135.693054 496.846985,141.132263 
	C496.453583,142.999512 495.618103,144.773651 494.984558,146.590317 
	C493.799561,149.340195 492.237152,151.953171 491.039978,154.723953 
	C487.391113,163.169312 484.522339,172.024979 480.132690,180.055557 
	C476.081757,187.466522 470.457825,194.017670 465.010529,201.484314 
M292.449310,604.965942 
	C300.147369,607.635620 307.688904,610.989319 315.584381,612.796265 
	C324.789276,614.902649 334.279999,616.546753 343.688995,616.796204 
	C359.101898,617.204895 374.561768,616.593140 389.975128,615.854492 
	C395.941650,615.568542 401.923035,614.096191 407.737122,612.557678 
	C413.253204,611.097961 418.760956,609.272949 423.913300,606.846191 
	C432.911652,602.608093 441.828644,598.116150 450.402740,593.087769 
	C455.848053,589.894287 460.555176,585.460938 465.693268,581.721008 
	C477.824005,572.891235 486.882660,561.110596 495.677582,549.314209 
	C502.867767,539.670227 508.671234,528.970642 514.750610,518.541443 
	C515.773804,516.786133 515.076355,514.027710 515.173828,511.732788 
	C512.950317,512.100586 510.365936,511.868500 508.570923,512.948425 
	C503.150940,516.209045 498.271576,520.403931 492.748169,523.448425 
	C485.053650,527.689514 477.025757,531.347656 469.027283,535.007812 
	C463.504333,537.535217 457.859222,539.838623 452.138702,541.877380 
	C447.660675,543.473267 443.036377,544.772583 438.378265,545.715820 
	C434.168610,546.568298 429.788361,546.550232 425.549408,547.292908 
	C419.533203,548.346985 413.628845,550.204895 407.582977,550.881348 
	C400.204468,551.706787 392.731842,551.781616 385.294556,551.973999 
	C365.160492,552.494751 344.959290,551.857971 325.056793,555.967590 
	C320.729828,556.861084 316.221558,556.996338 311.978241,558.148804 
	C304.594940,560.153992 297.320099,562.581665 290.062134,565.017944 
	C284.452332,566.900879 278.864319,568.890503 273.400543,571.155701 
	C267.326080,573.674072 261.355164,576.460632 255.458023,579.371338 
	C254.354675,579.915955 253.357895,581.524231 253.159500,582.776001 
	C253.010971,583.713135 253.961273,585.313782 254.874115,585.850220 
	C260.643250,589.240540 266.434052,592.626160 272.420502,595.605896 
	C278.783539,598.772949 285.371490,601.488037 292.449310,604.965942 
z"/>
<path fill="#EDE6CA" opacity="1.000000" stroke="none" 
	d="
M401.170074,463.918610 
	C379.815002,457.924835 362.975342,446.276337 351.326050,427.761047 
	C346.726440,420.450439 343.625610,412.571350 341.609344,403.893982 
	C339.359863,394.212952 339.611237,384.644623 340.321960,375.224152 
	C341.029633,365.844330 344.329712,356.657257 346.529053,347.394257 
	C347.348999,343.940796 348.075989,340.447296 349.185730,337.084381 
	C351.609009,329.741089 354.224915,322.460693 356.809753,315.171509 
	C359.570068,307.387482 362.302765,299.591980 365.202698,291.859711 
	C367.500885,285.731903 369.980408,279.670166 372.474854,273.618439 
	C375.906036,265.294067 379.338562,256.968109 382.936981,248.715439 
	C385.994751,241.702667 389.430817,234.853500 392.431946,227.817810 
	C394.783112,222.305862 396.617310,216.575546 398.876526,211.021729 
	C401.488464,204.600830 404.446686,198.319794 407.015106,191.882477 
	C410.468597,183.226959 413.601501,174.443222 417.081573,165.798874 
	C417.922363,163.710403 419.585602,161.953064 421.639648,158.900620 
	C423.296844,163.243439 424.349823,166.118301 425.486237,168.959808 
	C429.311310,178.524155 433.251404,188.043457 436.984650,197.643295 
	C440.482758,206.638382 443.594696,215.786728 447.224274,224.726471 
	C449.357452,229.980560 452.337036,234.884674 454.639771,240.077530 
	C459.415161,250.846252 464.181580,261.626160 468.606842,272.541260 
	C474.819458,287.865051 481.082458,303.186127 486.636627,318.753571 
	C491.141937,331.381409 495.223267,344.227386 498.389893,357.244843 
	C500.923065,367.658295 503.940338,378.147675 503.031006,389.172211 
	C501.517609,407.520111 495.625458,423.952850 483.171265,437.878967 
	C473.052979,449.193085 460.747009,457.426514 446.659668,462.318939 
	C434.901978,466.402344 422.365906,467.246857 409.859528,465.430817 
	C407.089081,465.028534 404.338043,464.492432 401.170074,463.918610 
z"/>
<path fill="#4360D8" opacity="1.000000" stroke="none" 
	d="
M174.007675,382.027069 
	C178.580582,370.938171 182.452332,359.896790 187.949203,349.734467 
	C191.839981,342.541382 196.531921,335.719574 202.210571,329.332520 
	C210.266220,320.271912 219.139801,312.412842 228.985291,305.900116 
	C239.637115,298.854065 250.852798,292.499084 263.419373,288.848999 
	C273.678009,285.869263 283.511780,281.449249 293.722534,278.274567 
	C301.055786,275.994598 308.748322,274.897614 316.190674,272.932404 
	C322.336761,271.309418 328.304596,269.017395 334.438446,267.339996 
	C339.408173,265.980896 344.528503,265.182800 349.542633,263.972626 
	C353.863892,262.929688 358.129517,261.656311 363.277130,260.250702 
	C361.585205,265.669464 360.253113,271.040771 358.227936,276.136627 
	C355.802002,282.240936 352.207153,287.718262 350.737305,294.410645 
	C349.147705,301.648163 345.552399,308.428436 343.061584,315.489166 
	C340.237946,323.493408 337.680481,331.591339 334.985687,339.641296 
	C333.081909,345.328339 330.149933,350.888245 329.474060,356.713440 
	C328.660522,363.724762 325.055817,369.990570 325.715576,377.495239 
	C326.351440,384.728424 323.733521,392.227509 324.215546,399.499054 
	C324.968231,410.853821 326.031342,422.360535 332.422394,432.510437 
	C333.011627,433.446228 331.102325,437.544556 329.994843,437.705292 
	C321.906342,438.879333 315.261230,443.102386 308.271118,446.769501 
	C297.380035,452.483154 286.018768,457.344879 275.368988,463.459747 
	C267.041443,468.241302 259.338043,474.172302 251.627213,479.952545 
	C235.090271,492.349121 221.118027,507.415558 207.797104,523.096802 
	C205.246292,526.099548 203.459564,529.747864 200.939606,532.782166 
	C199.816849,534.134094 197.750244,534.702087 196.131241,535.615051 
	C193.059601,529.344849 190.407852,523.948059 187.770706,518.544128 
	C184.853317,512.566040 181.795578,506.649689 179.092789,500.575714 
	C177.252136,496.439240 175.576630,492.166962 174.433487,487.796844 
	C172.679977,481.093323 171.811691,474.150208 169.922836,467.491730 
	C165.300476,451.197052 168.073822,434.593903 167.501556,418.143402 
	C167.196793,409.383118 168.937790,400.774414 171.751587,392.401733 
	C172.829346,389.194794 173.270187,385.773834 174.007675,382.027069 
z"/>
<path fill="#04162D" opacity="1.000000" stroke="none" 
	d="
M258.269409,496.232391 
	C265.506104,490.716675 272.210022,485.049927 279.517578,480.314728 
	C286.545074,475.761017 294.035980,471.831329 301.612732,468.237915 
	C312.851532,462.907562 324.233276,457.830658 335.799774,453.268555 
	C339.254669,451.905884 343.132782,451.189056 346.666565,455.829407 
	C354.042725,465.515289 363.643127,473.218994 374.527313,478.646576 
	C386.230835,484.482727 398.281403,489.826752 411.997894,489.049042 
	C422.380402,488.460388 432.868500,488.987091 443.155792,487.744110 
	C449.447052,486.983978 455.706787,484.357788 461.506592,481.579865 
	C467.493134,478.712524 472.926422,474.679138 478.563446,471.095612 
	C486.038116,466.343964 492.358765,460.270752 497.356720,453.035400 
	C502.125916,446.131195 507.105072,439.159607 510.436005,431.537659 
	C513.398315,424.759216 514.596497,417.113617 515.891113,409.731079 
	C517.069763,403.009613 517.884216,396.123108 517.832825,389.317139 
	C517.786743,383.204163 516.213501,377.114929 515.597534,370.986755 
	C515.405579,369.076935 515.433411,366.418518 516.554565,365.213928 
	C529.883057,350.893341 539.957642,334.389862 548.875793,317.163239 
	C553.064270,309.072693 556.241821,300.463287 560.125488,292.205658 
	C560.704041,290.975403 562.609436,289.822998 563.978638,289.725555 
	C564.741028,289.671326 566.403137,291.869537 566.402588,293.052032 
	C566.394531,309.692566 566.823975,326.375031 565.758301,342.958038 
	C565.095398,353.272888 561.977539,363.417389 560.175171,373.675903 
	C558.927429,380.777405 558.228943,387.976929 556.926392,395.066772 
	C556.188965,399.080475 554.681274,402.948608 553.602966,406.904755 
	C552.098755,412.423462 549.987488,417.888123 549.370911,423.511322 
	C548.436096,432.035980 544.713379,439.433289 541.400085,447.011566 
	C538.538330,453.556915 535.551331,460.123047 531.825012,466.192139 
	C528.529419,471.559753 524.355408,476.444702 520.188538,481.209900 
	C509.194061,493.783295 497.057800,505.161072 482.665985,513.776123 
	C470.413666,521.110474 457.380127,526.561218 443.440430,530.231750 
	C433.821106,532.764526 424.074402,533.576355 414.446350,535.340698 
	C398.719269,538.222656 383.080658,536.024719 367.449493,537.006287 
	C357.288971,537.644226 347.049011,537.749573 336.995483,539.164917 
	C325.735443,540.750122 314.564514,543.211609 303.504791,545.907166 
	C292.680206,548.545410 281.758331,551.221985 271.408173,555.243286 
	C261.527405,559.082153 252.307190,564.634705 242.841461,569.520813 
	C239.661011,571.162598 236.678406,573.194458 233.465912,574.762207 
	C232.761917,575.105713 231.164261,574.536316 230.485397,573.870300 
	C224.041031,567.547607 217.629654,561.186707 211.376099,554.676147 
	C208.735596,551.927124 209.948227,547.533875 213.750977,543.005737 
	C218.943558,536.822632 223.482300,530.032715 229.086670,524.266174 
	C238.395874,514.687500 248.329803,505.715973 258.269409,496.232391 
z"/>
<path fill="#4360D8" opacity="1.000000" stroke="none" 
	d="
M465.268616,201.215912 
	C470.457825,194.017670 476.081757,187.466522 480.132690,180.055557 
	C484.522339,172.024979 487.391113,163.169312 491.039978,154.723953 
	C492.237152,151.953171 493.799561,149.340195 494.984558,146.590317 
	C495.618103,144.773651 496.453583,142.999512 496.846985,141.132263 
	C497.992981,135.693054 498.614410,130.120224 500.094574,124.780815 
	C501.696014,119.003777 503.195557,112.919899 506.257782,107.895103 
	C510.321289,101.227379 516.595764,102.555511 521.191101,109.146782 
	C532.488525,125.351021 538.085693,144.350876 547.497437,161.487473 
	C551.826782,169.370117 554.496155,178.350449 556.735840,187.134537 
	C558.452026,193.865097 558.593933,201.055420 558.922668,208.065323 
	C559.265625,215.378601 559.750183,222.820740 558.797241,230.024582 
	C557.635132,238.810120 555.032104,247.404404 553.065369,256.084381 
	C551.352417,263.643982 550.110901,271.348572 547.817627,278.726929 
	C545.836914,285.099762 542.697937,291.116150 540.018066,297.267059 
	C537.690186,302.610199 535.786987,308.219391 532.816101,313.184540 
	C526.483582,323.767975 519.658997,334.061859 512.866211,344.362427 
	C510.610046,347.783661 508.134857,345.765411 507.287384,343.346832 
	C503.721710,333.170929 500.789368,322.772461 497.198090,312.606354 
	C493.851654,303.133392 489.954529,293.855286 486.318298,284.484222 
	C483.210266,276.474518 480.251099,268.404480 477.001373,260.453003 
	C473.583282,252.089554 469.848175,243.856262 466.344604,235.526978 
	C463.201416,228.054306 460.116882,220.554459 457.212555,212.987503 
	C456.908722,212.195847 457.808258,210.727524 458.479462,209.816238 
	C460.571289,206.976181 462.821655,204.252884 465.268616,201.215912 
z"/>
<path fill="#4360D8" opacity="1.000000" stroke="none" 
	d="
M292.155273,604.683228 
	C285.371490,601.488037 278.783539,598.772949 272.420502,595.605896 
	C266.434052,592.626160 260.643250,589.240540 254.874115,585.850220 
	C253.961273,585.313782 253.010971,583.713135 253.159500,582.776001 
	C253.357895,581.524231 254.354675,579.915955 255.458023,579.371338 
	C261.355164,576.460632 267.326080,573.674072 273.400543,571.155701 
	C278.864319,568.890503 284.452332,566.900879 290.062134,565.017944 
	C297.320099,562.581665 304.594940,560.153992 311.978241,558.148804 
	C316.221558,556.996338 320.729828,556.861084 325.056793,555.967590 
	C344.959290,551.857971 365.160492,552.494751 385.294556,551.973999 
	C392.731842,551.781616 400.204468,551.706787 407.582977,550.881348 
	C413.628845,550.204895 419.533203,548.346985 425.549408,547.292908 
	C429.788361,546.550232 434.168610,546.568298 438.378265,545.715820 
	C443.036377,544.772583 447.660675,543.473267 452.138702,541.877380 
	C457.859222,539.838623 463.504333,537.535217 469.027283,535.007812 
	C477.025757,531.347656 485.053650,527.689514 492.748169,523.448425 
	C498.271576,520.403931 503.150940,516.209045 508.570923,512.948425 
	C510.365936,511.868500 512.950317,512.100586 515.173828,511.732788 
	C515.076355,514.027710 515.773804,516.786133 514.750610,518.541443 
	C508.671234,528.970642 502.867767,539.670227 495.677582,549.314209 
	C486.882660,561.110596 477.824005,572.891235 465.693268,581.721008 
	C460.555176,585.460938 455.848053,589.894287 450.402740,593.087769 
	C441.828644,598.116150 432.911652,602.608093 423.913300,606.846191 
	C418.760956,609.272949 413.253204,611.097961 407.737122,612.557678 
	C401.923035,614.096191 395.941650,615.568542 389.975128,615.854492 
	C374.561768,616.593140 359.101898,617.204895 343.688995,616.796204 
	C334.279999,616.546753 324.789276,614.902649 315.584381,612.796265 
	C307.688904,610.989319 300.147369,607.635620 292.155273,604.683228 
z"/>
</svg>